<svg xmlns="http://www.w3.org/2000/svg" width="256" height="256" viewBox="0 0 100 100">
    <rect width="100" height="100" rx="20" fill="#1e1e1e"></rect>
    <path fill="#ea8750"
          d="M50.81 82.35Q43.88 82.35 38.39 80.10Q32.90 77.85 29.62 73.44Q26.33 69.03 26.15 62.82L26.15 62.82L42.53 62.82Q42.89 66.33 44.96 68.18Q47.03 70.02 50.36 70.02L50.36 70.02Q53.78 70.02 55.76 68.45Q57.74 66.88 57.74 64.08L57.74 64.08Q57.74 61.74 56.17 60.21Q54.59 58.68 52.30 57.69Q50 56.70 45.77 55.44L45.77 55.44Q39.65 53.55 35.78 51.66Q31.91 49.77 29.12 46.08Q26.33 42.39 26.33 36.45L26.33 36.45Q26.33 27.63 32.72 22.64Q39.11 17.64 49.37 17.64L49.37 17.64Q59.81 17.64 66.20 22.64Q72.59 27.63 73.04 36.54L73.04 36.54L56.39 36.54Q56.21 33.48 54.14 31.73Q52.07 29.97 48.83 29.97L48.83 29.97Q46.04 29.97 44.33 31.46Q42.62 32.94 42.62 35.73L42.62 35.73Q42.62 38.79 45.50 40.50Q48.38 42.21 54.50 44.19L54.50 44.19Q60.62 46.26 64.44 48.15Q68.27 50.04 71.06 53.64Q73.85 57.24 73.85 62.91L73.85 62.91Q73.85 68.31 71.11 72.72Q68.36 77.13 63.14 79.74Q57.92 82.35 50.81 82.35L50.81 82.35Z"></path>
</svg>